<?xml version="1.0" encoding="utf-8"?>
<!-- Generator: Adobe Illustrator 24.3.0, SVG Export Plug-In . SVG Version: 6.00 Build 0)  -->
<svg version="1.1" id="Layer_1" xmlns="http://www.w3.org/2000/svg" xmlns:xlink="http://www.w3.org/1999/xlink" x="0px" y="0px"
	 viewBox="0 0 395.03 124.05" style="enable-background:new 0 0 395.03 124.05;" xml:space="preserve">
<style type="text/css">
	.st0{fill:#FF700E;}
</style>
<g>
	<path class="st0" d="M153.45,50.71c-7.4-7.05-16.61-10.57-27.64-10.57c-7.36,0-14.35,1.7-20.99,5.09
		c-6.45,3.3-13.72,9.29-21.81,17.98l-7.41,9.84C60.99,92.88,46.89,102.8,33.31,102.8c-6.35,0-11.67-2.06-15.96-6.18
		c-4.29-4.12-6.44-9.45-6.44-15.98c0-7.39,2.6-13.46,7.79-18.21c5.19-4.76,11.97-7.13,20.34-7.13c4.74,0,9.49,0.81,14.25,2.42
		c1.7,0.58,3.59,0.18,4.81-1.14l6.41-6.88c1.34-1.44,1.2-3.77-0.37-4.96c-8.27-6.29-16.71-9.43-25.31-9.43
		c-10.53,0-19.64,4.16-27.32,12.48C3.83,56.1-0.01,66.8-0.01,79.88c0,13.67,4.04,24.5,12.12,32.48
		c8.08,7.98,18.43,11.97,31.05,11.97c18.75,0,35.56-10.74,50.41-32.22c13.13,16.64,25.75,24.97,37.86,24.97
		c8.65,0,16.34-3.61,23.04-10.83c6.71-7.22,10.06-16.43,10.06-27.64C164.54,67.06,160.84,57.76,153.45,50.71z M146.96,93.31
		c-4.58,4.03-10.3,6.05-17.15,6.05c-9.45,0-19.47-4.84-30.07-14.52c11.68-16.48,23.55-24.71,35.59-24.71
		c5.41,0,9.85,1.74,13.31,5.22c3.46,3.48,5.19,7.94,5.19,13.37C153.83,84.42,151.54,89.28,146.96,93.31z"/>
</g>
<path d="M176.23,40.12h11.07l5.12,56.16h0.21l5.43-56.16h12.53L216,96.28h0.21l5.12-56.16h9.92l-7.41,73.07h-14.3l-5.22-49.27h-0.21
	l-5.22,49.27h-15.24L176.23,40.12z"/>
<path d="M240.74,109.43c-2.99-3.2-4.49-7.73-4.49-13.57V57.45c0-5.85,1.5-10.37,4.49-13.57c2.99-3.2,7.31-4.8,12.94-4.8
	c5.64,0,9.95,1.6,12.94,4.8c2.99,3.2,4.49,7.72,4.49,13.57v38.42c0,5.85-1.5,10.37-4.49,13.57c-2.99,3.2-7.31,4.8-12.94,4.8
	C248.05,114.23,243.73,112.63,240.74,109.43z M259.63,96.59V56.72c0-4.8-1.98-7.2-5.95-7.2s-5.95,2.4-5.95,7.2v39.88
	c0,4.8,1.98,7.2,5.95,7.2S259.63,101.39,259.63,96.59z"/>
<path d="M278.84,40.12h17.01c5.92,0,10.23,1.38,12.94,4.12c2.71,2.75,4.07,6.98,4.07,12.68v4.49c0,7.59-2.5,12.39-7.52,14.41v0.21
	c2.78,0.83,4.75,2.54,5.9,5.11c1.15,2.58,1.72,6.02,1.72,10.33v12.84c0,2.09,0.07,3.78,0.21,5.06c0.14,1.29,0.49,2.56,1.04,3.81
	h-11.69c-0.42-1.18-0.7-2.3-0.84-3.34c-0.14-1.04-0.21-2.92-0.21-5.64V90.85c0-3.34-0.54-5.67-1.62-6.99
	c-1.08-1.32-2.94-1.98-5.58-1.98h-3.97v31.32h-11.48V40.12z M294.5,71.43c2.3,0,4.02-0.59,5.17-1.77c1.15-1.18,1.72-3.17,1.72-5.95
	v-5.64c0-2.64-0.47-4.56-1.41-5.74c-0.94-1.18-2.42-1.77-4.44-1.77h-5.22v20.88H294.5z"/>
<path class="st0" d="M318.61,102.96l21.29-52.4h-20.25V40.12h32.57v10.23l-21.3,52.4h21.3v10.44h-33.61V102.96z"/>
<path d="M367.57,40.12h15.55l11.9,73.07h-11.48l-2.09-14.51v0.21h-13.05l-2.09,14.3h-10.65L367.57,40.12z M380.1,88.97l-5.12-36.12
	h-0.21l-5.01,36.12H380.1z"/>
<circle class="st0" cx="44.81" cy="13.66" r="13.37"/>
<circle class="st0" cx="128.67" cy="21.38" r="10.08"/>
</svg>
